PathFileType	4	(X/Y/Z)	 s02c0403.trc
DataRate	CameraRate	NumFrames	NumMarkers	Units	OrigDataRate	OrigDataStartFrame	OrigNumFrames
200	200	5	51	mm	200	1	2000
Frame#	Time	racr			lacr			c7			jug			rlel			rdr			llel			ldr			s2			lic			ric			lasi			rasi			rpsi			lpsi			rgt			lgt			rth1			rth2			rth3			rth4			rlfc			rmfc			rsh1			rsh2			rsh3			rsh4			rlmal			rmmal			rcal			rtoe			rmt5			rmt1			lth1			lth2			lth4			lth3			llfc			lmfc			lsh1			lsh2			lsh3			lsh4			llmal			lmmal			lcal			ltoe			lmt5			SBIKE			LBIKE			RBIKE			
		X1	Y1	Z1	X2	Y2	Z2	X3	Y3	Z3	X4	Y4	Z4	X5	Y5	Z5	X6	Y6	Z6	X7	Y7	Z7	X8	Y8	Z8	X9	Y9	Z9	X10	Y10	Z10	X11	Y11	Z11	X12	Y12	Z12	X13	Y13	Z13	X14	Y14	Z14	X15	Y15	Z15	X16	Y16	Z16	X17	Y17	Z17	X18	Y18	Z18	X19	Y19	Z19	X20	Y20	Z20	X21	Y21	Z21	X22	Y22	Z22	X23	Y23	Z23	X24	Y24	Z24	X25	Y25	Z25	X26	Y26	Z26	X27	Y27	Z27	X28	Y28	Z28	X29	Y29	Z29	X30	Y30	Z30	X31	Y31	Z31	X32	Y32	Z32	X33	Y33	Z33	X34	Y34	Z34	X35	Y35	Z35	X36	Y36	Z36	X37	Y37	Z37	X38	Y38	Z38	X39	Y39	Z39	X40	Y40	Z40	X41	Y41	Z41	X42	Y42	Z42	X43	Y43	Z43	X44	Y44	Z44	X45	Y45	Z45	X46	Y46	Z46	X47	Y47	Z47	X48	Y48	Z48	X49	Y49	Z49	X50	Y50	Z50	X51	Y51	Z51	
1	0.0050	461.215426	1318.406330	-138.345051	470.509859	1326.430542	-488.492318	458.097973	1379.155081	-319.969298	438.195899	1240.672857	-314.079834	585.522568	1073.368460	-124.061553	717.122192	887.463580	-126.405382	568.700074	1066.627994	-524.854425	703.788846	883.707634	-498.295191	-5.762425	1107.660593	-316.318031	133.550819	1095.437241	-458.751108	121.281338	1109.933538	-174.166292	184.453980	1064.870980	-432.243263	175.130157	1093.173314	-207.204371	7.154129	1128.144971	-280.688364	15.831956	1130.140468	-366.570282	103.032581	1033.968943	-130.831047	88.661377	1002.912779	-489.660618	194.179723	1014.540051	-129.770802	281.239839	1005.504536	-140.709379	354.628144	966.950265	-118.048247	289.277654	1028.033779	-170.408076	477.562139	881.348906	-151.020278	470.769182	860.284588	-263.012857	458.917123	769.548381	-134.193123	440.326935	684.513947	-152.078462	386.464838	616.029846	-144.291619	452.424413	679.995760	-188.414221	325.399348	511.484203	-148.936444	333.602537	532.152275	-228.978093	249.657970	463.383087	-190.306538	535.074007	455.128744	-187.267764	426.887606	437.769315	-129.141751	453.218501	452.628534	-236.694793	193.297603	908.564796	-507.805444	260.855745	854.491125	-507.777032	288.638978	873.716875	-493.737492	291.204036	770.046846	-507.364598	345.292095	682.661350	-486.268980	352.947057	652.484680	-383.202968	296.113465	589.830706	-504.490469	267.182930	509.791279	-487.829515	198.639568	451.283913	-488.332550	286.462429	501.186577	-453.253182	129.115125	376.302122	-469.227487	146.619016	363.537035	-394.528063	52.166974	368.530985	-427.682048	268.349096	180.262826	-441.994431	169.638099	229.341996	-500.347262	-126.490382	872.020360	-308.084555	37.215048	86.566751	-514.341961	34.360171	82.661735	-114.093186	
2	0.0100	461.229548	1318.426091	-138.364230	470.458282	1326.402228	-488.506069	458.020010	1379.162502	-319.980525	438.146988	1240.722765	-314.018952	585.554966	1073.388072	-124.157074	717.127218	887.486242	-126.397889	568.661172	1066.625668	-524.907212	703.780007	883.721524	-498.304245	-5.681706	1107.572351	-316.371978	133.627276	1095.423838	-458.749588	121.287272	1109.900698	-174.170808	184.499143	1064.860048	-432.229486	175.126618	1093.173855	-207.128067	7.200719	1128.065569	-280.727116	15.858217	1130.093826	-366.636031	103.076141	1033.924334	-130.844215	88.727554	1002.875822	-489.693791	194.221349	1014.492126	-129.779758	281.267859	1005.508770	-140.695179	354.666399	966.972933	-118.026686	289.337829	1028.035402	-170.327785	477.608858	881.381242	-150.961763	470.851503	860.310729	-262.980891	458.966220	769.563249	-134.157870	440.425109	684.514275	-152.035270	386.553872	616.043515	-144.264472	452.490280	679.994413	-188.370456	325.490723	511.467361	-148.928114	333.703815	532.160839	-228.981504	249.724824	463.451118	-190.300667	535.152309	455.023234	-187.283705	426.965126	437.730386	-129.147789	453.299368	452.546961	-236.689997	193.351568	908.503271	-507.828852	260.877571	854.378047	-507.816709	288.669726	873.672394	-493.778668	291.223339	769.989942	-507.366407	345.333225	682.592324	-486.278910	353.008085	652.458883	-383.196545	296.120482	589.810984	-504.491116	267.152437	509.773465	-487.825955	198.580465	451.299849	-488.336893	286.435270	501.177126	-453.251775	128.986461	376.346615	-469.226453	146.486215	363.580725	-394.518805	52.028297	368.554406	-427.684255	268.289824	180.362220	-441.992904	169.581615	229.418555	-500.372792	-126.485835	872.028941	-308.091511	37.217610	86.560553	-514.350010	34.078751	82.853504	-114.245195	
3	0.0150	461.257919	1318.476204	-138.391946	470.405939	1326.378744	-488.506040	457.961104	1379.164437	-320.026905	438.121423	1240.757428	-314.007344	585.571669	1073.427200	-124.206477	717.121778	887.490628	-126.422929	568.642578	1066.599341	-524.939989	703.783900	883.712273	-498.329898	-5.615411	1107.462088	-316.438863	133.689310	1095.381403	-458.722903	121.276644	1109.881869	-174.146020	184.554486	1064.893771	-432.180581	175.156425	1093.164910	-207.092534	7.223061	1127.971611	-280.766175	15.892870	1130.024934	-366.664704	103.119291	1033.896908	-130.840583	88.797006	1002.802127	-489.676802	194.269348	1014.477529	-129.767665	281.307542	1005.493160	-140.683781	354.698457	966.965452	-117.991249	289.383759	1028.035401	-170.301004	477.667038	881.383834	-150.904624	470.928231	860.322081	-262.958002	459.056627	769.556869	-134.121275	440.510130	684.525504	-151.990178	386.633974	616.054054	-144.239938	452.573992	679.990234	-188.338177	325.592148	511.451678	-148.929751	333.799728	532.149823	-228.965042	249.754102	463.569801	-190.216389	535.219008	454.929933	-187.283728	427.033671	437.668813	-129.149068	453.381965	452.497400	-236.689122	193.370922	908.457006	-507.829609	260.910954	854.294290	-507.821750	288.697749	873.599114	-493.822737	291.227472	769.926993	-507.355820	345.346739	682.511410	-486.276700	353.039081	652.389482	-383.180741	296.100414	589.757377	-504.470210	267.076499	509.750988	-487.812994	198.478455	451.307396	-488.303648	286.337036	501.114667	-453.210413	128.822638	376.386895	-469.208095	146.370277	363.596609	-394.484575	51.855218	368.539827	-427.664982	268.253160	180.489542	-441.977247	169.518066	229.472865	-500.367801	-126.487855	872.032122	-308.087530	37.204000	86.567688	-514.339646	34.085808	82.839653	-114.228181	
4	0.0200	461.268612	1318.508463	-138.416962	470.363718	1326.344856	-488.502490	457.902581	1379.160850	-320.030026	438.117234	1240.784277	-313.936851	585.880518	1073.299245	-124.615336	717.132067	887.529561	-126.422288	568.769047	1066.668503	-524.593480	702.818168	883.015480	-497.619101	-5.546901	1107.312768	-316.349546	133.759172	1095.599053	-458.616128	121.004887	1109.534971	-174.907051	184.596738	1064.891239	-432.136071	175.168900	1093.159011	-207.054865	8.203433	1127.856887	-281.479622	16.267576	1130.536827	-365.471587	103.165693	1033.851272	-130.851478	88.833995	1002.755885	-489.675176	194.164481	1014.420315	-129.838558	281.362172	1005.487575	-140.660768	354.723874	966.948413	-117.945086	289.860961	1027.417726	-170.704370	477.859970	881.316174	-150.949896	471.009164	860.312980	-262.911098	459.134902	769.541145	-134.087079	438.064496	682.560630	-152.419779	386.884002	615.916220	-144.238625	452.794939	679.748941	-188.414313	325.337310	512.212107	-148.347491	333.369629	532.117181	-229.389975	249.835792	463.589305	-190.221490	535.287252	454.836685	-187.287306	427.442204	437.451541	-129.274985	453.439036	452.447012	-236.680438	193.391751	908.388676	-507.835515	260.980587	853.650265	-507.214056	288.520858	873.340337	-493.634098	291.192725	769.765906	-507.370913	345.550075	682.372790	-486.164907	353.054900	652.318523	-383.163035	296.044789	589.688697	-504.437217	267.077541	509.680441	-488.089307	198.223506	451.505865	-488.351873	286.115523	501.087411	-452.724923	128.747556	376.349474	-469.224960	146.160159	363.620604	-394.451838	51.667037	368.484884	-427.632473	268.213704	180.654621	-442.002224	169.532845	229.507279	-500.687049	-126.441874	872.040878	-308.183329	37.218147	86.559188	-514.341030	34.397481	82.649320	-114.095219	
5	0.0250	461.192099	1318.824923	-138.209451	470.086347	1326.665958	-488.270736	457.853419	1379.054176	-320.057519	438.065305	1240.930094	-313.650613	585.441898	1073.757873	-123.968109	717.132433	887.946539	-126.430795	568.621250	1066.797992	-524.149172	702.717352	883.116648	-497.426701	-5.663090	1106.745652	-316.398336	133.785248	1095.841019	-458.536170	120.851840	1110.173468	-174.276171	184.857444	1065.989530	-432.831473	175.233015	1093.225098	-206.978700	8.192100	1127.872069	-281.652651	16.296990	1130.503098	-365.504668	103.299365	1033.917267	-131.059068	88.872842	1002.552337	-489.715885	194.001383	1014.843121	-129.431496	281.115510	1005.832278	-140.291378	354.382831	967.339368	-117.377631	289.586021	1027.792598	-170.346753	477.916443	881.446911	-150.773902	470.814260	860.724878	-262.425746	458.722776	769.922432	-133.646121	438.217316	683.298969	-152.199450	386.457334	616.331746	-143.823891	452.831170	679.788869	-188.285249	325.339274	512.215756	-148.268429	332.597859	532.656354	-228.570360	249.922808	463.536609	-190.289888	535.067481	455.039438	-187.042761	426.957651	437.893771	-128.832146	453.381973	452.843221	-236.636519	193.082133	908.495483	-507.191520	260.929870	853.510341	-506.978018	288.522938	873.252452	-493.475204	291.122247	769.807515	-507.112996	345.026366	682.624931	-485.448507	352.633504	652.937761	-382.521755	295.653620	589.901863	-503.855551	266.734973	509.952566	-487.700633	197.992344	451.345930	-487.977980	286.005306	501.023842	-452.481264	128.438518	376.578051	-469.090396	144.223645	365.116911	-393.347914	51.449935	368.404057	-427.604833	268.147769	180.884165	-441.873737	169.420546	229.348870	-499.891350	-126.425829	871.954631	-308.303192	37.317636	87.081187	-513.981798	33.270275	83.880050	-114.100845	
